# xmcd CD database file
#
# Track frame offsets:
#	150
#	18303
#	43244
#	64440
#	85569
#	105092
#	124853
#	144065
#	165409
#	185567
#	206084
#	222723
#	242705
#	262371
#
# Disc length: 3757 seconds
#
# Revision: 0
# Processed by: cddbd v1.5.2PL0 Copyright (c) Steve Scherf et al.
# Submitted via: CDex 1.51
#
DISCID=cb0eab0e
DTITLE=Mike Daniels and his Delta Jazzmen - Together Again
DYEAR=1900
DGENRE=Jazz
TTITLE0=Thick Lip Stomp
TTITLE1=Skid-Dat-De-Dat
TTITLE2=Louisiana
TTITLE3=Saragota Swing
TTITLE4=Tank Town Bump
TTITLE5=Manhattan
TTITLE6=Big Boy
TTITLE7=Kansas City Stomp
TTITLE8=Got No Blues
TTITLE9=Little Lawrence
TTITLE10=Wa Wa Wa
TTITLE11=Keyhole Blues
TTITLE12=Thou Swell
TTITLE13=Oh Baby
EXTD=
EXTT0=
EXTT1=
EXTT2=
EXTT3=
EXTT4=
EXTT5=
EXTT6=
EXTT7=
EXTT8=
EXTT9=
EXTT10=
EXTT11=
EXTT12=
EXTT13=
PLAYORDER=
